<?xml version="1.0" encoding="UTF-8" standalone="no"?>
<!DOCTYPE svg PUBLIC "-//W3C//DTD SVG 1.1//EN" "http://www.w3.org/Graphics/SVG/1.1/DTD/svg11.dtd">
<svg
    xmlns:svg="http://www.w3.org/2000/svg"
    xmlns="http://www.w3.org/2000/svg"
    version="1.1"
    width="499.99973"
    height="519.612"
    id="svg5902">
  <defs id="defs5904" />
  <path
      d="M 499.99974,259.80559 C 499.99974,403.29333 388.06887,519.612 250.00231,519.612 111.93128,519.612 0,403.29333 0,259.80559 0,116.31908 111.93128,0 250.00231,0 388.06887,0 499.99974,116.31908 499.99974,259.80559 z"
      id="path3312"
      style="fill:#40a0a0;fill-opacity:1;fill-rule:nonzero;stroke:none;"
  />
  <path
      d="m 295.05509,408.32985 c 0,-10.071 0.56233,-30.2138 3.21099,-43.63962 l -1.07169,0 c -16.16697,28.53333 -45.78584,49.80609 -88.3224,49.80609 -59.7577,0 -79.68372,-39.7355 -79.68372,-87.86357 l 0,-196.41558 82.3886,0 0,176.82002 c 0,22.40517 5.91343,35.83343 24.7698,35.83343 29.07407,0 52.77462,-36.94627 52.77462,-77.79462 l 0,-134.85883 82.36783,0 0,278.11268 -76.4544,0 z"
      id="path3314"
      style="fill:#ffffff;fill-opacity:1;fill-rule:nonzero;stroke:none;"
  />
</svg>
