
<svg width="747px" height="188px" viewBox="0 0 747 188" version="1.1" xmlns="http://www.w3.org/2000/svg" xmlns:xlink="http://www.w3.org/1999/xlink">
    <g id="Page-1" stroke="none" stroke-width="1" fill="none" fill-rule="evenodd">
        <g id="uba_logo" transform="translate(652.000000, 0.000000)">
            <path d="M95,49.4999219 C95,76.8381786 73.7331236,99 47.5004636,99 C21.2669543,99 0,76.8381786 0,49.4999219 C0,22.1618995 21.2669543,0 47.5004636,0 C73.7331236,0 95,22.1618995 95,49.4999219 Z" id="path3312" fill="#40A0A0"></path>
            <path d="M56.4892569,77.8286535 C56.4892569,75.9156254 56.5960134,72.0894173 57.0988526,69.5391273 L56.8953958,69.5391273 C53.826151,74.9591513 48.2031084,79 40.1276858,79 C28.7828878,79 25,71.4520775 25,62.3099516 L25,25 L40.6411981,25 L40.6411981,58.5876939 C40.6411981,62.8436486 41.7638429,65.3944021 45.3436612,65.3944021 C50.8632754,65.3944021 55.362745,58.3763054 55.362745,50.6169924 L55.362745,25 L71,25 L71,77.8286535 L56.4853898,77.8286535 L56.4892569,77.8286535 Z" id="path3314" fill="#FFFFFF"></path>
        </g>
        <path d="M345.133929,184.093349 L302.303571,184.093349 C291.321429,184.093349 288.514881,184.22287 284,184.611435 C284.488095,178.264877 285.098214,174.37923 286.5625,169.327888 C289.735119,158.577596 295.592262,148.733956 304.133929,140.315053 C308.770833,135.781797 313.407738,132.025671 325.854167,123.088681 C336.348214,115.576429 338.910714,112.208868 338.910714,106.250875 C338.910714,100.033839 333.66369,95.8891482 325.854167,95.8891482 C319.997024,95.8891482 315.848214,97.9614936 313.16369,102.365228 C311.455357,105.214702 310.723214,107.805134 310.113095,113.245041 L284.488095,110.395566 C286.318452,99.1271879 288.514881,93.428238 293.395833,87.3407235 C300.35119,78.6627771 311.455357,74 325.732143,74 C342.205357,74 354.77381,79.8284714 360.875,90.31972 C363.559524,94.8529755 364.901786,99.9043174 364.901786,105.473746 C364.901786,114.928821 361.241071,122.95916 353.675595,129.564761 C349.64881,133.320887 348.428571,134.227538 335.982143,143.423571 C325.366071,151.194866 320.85119,155.728121 318.044643,161.427071 L346.47619,161.427071 C355.627976,161.427071 361.241071,161.168028 366,160.52042 L366,185 C358.922619,184.352392 353.797619,184.093349 345.133929,184.093349 Z M419.438646,187 C407.413258,187 397.228491,182.834101 389.7433,174.892857 C385.693935,170.596774 382.626234,165.64977 380.785614,160.442396 C377.595205,151.199309 376,141.175115 376,130.630184 C376,116.960829 379.067701,102.770737 383.730606,94.5691244 C391.215797,81.2903226 403.977433,74 419.438646,74 C431.341326,74 441.771509,78.2960829 449.2567,86.1071429 C453.306065,90.4032258 456.373766,95.3502304 458.214386,100.557604 C461.404795,109.800691 463,119.824885 463,130.5 C463,144.169355 459.932299,158.489631 455.269394,166.691244 C447.906911,179.709677 435.022567,187 419.438646,187 Z M420,96 C408.644295,96 402,108.391304 402,129.652174 C402,153 408.161074,165 420.120805,165 C431.959732,165 438,153.26087 438,130.043478 C438,107.73913 431.718121,96 420,96 Z M534.133929,184.093349 L491.303571,184.093349 C480.321429,184.093349 477.514881,184.22287 473,184.611435 C473.488095,178.264877 474.098214,174.37923 475.5625,169.327888 C478.735119,158.577596 484.592262,148.733956 493.133929,140.315053 C497.770833,135.781797 502.407738,132.025671 514.854167,123.088681 C525.348214,115.576429 527.910714,112.208868 527.910714,106.250875 C527.910714,100.033839 522.66369,95.8891482 514.854167,95.8891482 C508.997024,95.8891482 504.848214,97.9614936 502.16369,102.365228 C500.455357,105.214702 499.723214,107.805134 499.113095,113.245041 L473.488095,110.395566 C475.318452,99.1271879 477.514881,93.428238 482.395833,87.3407235 C489.35119,78.6627771 500.455357,74 514.732143,74 C531.205357,74 543.77381,79.8284714 549.875,90.31972 C552.559524,94.8529755 553.901786,99.9043174 553.901786,105.473746 C553.901786,114.928821 550.241071,122.95916 542.675595,129.564761 C538.64881,133.320887 537.428571,134.227538 524.982143,143.423571 C514.366071,151.194866 509.85119,155.728121 507.044643,161.427071 L535.47619,161.427071 C544.627976,161.427071 550.241071,161.168028 555,160.52042 L555,185 C547.922619,184.352392 542.797619,184.093349 534.133929,184.093349 Z M608.438646,187 C596.413258,187 586.228491,182.834101 578.7433,174.892857 C574.693935,170.596774 571.626234,165.64977 569.785614,160.442396 C566.595205,151.199309 565,141.175115 565,130.630184 C565,116.960829 568.067701,102.770737 572.730606,94.5691244 C580.215797,81.2903226 592.977433,74 608.438646,74 C620.341326,74 630.771509,78.2960829 638.2567,86.1071429 C642.306065,90.4032258 645.373766,95.3502304 647.214386,100.557604 C650.404795,109.800691 652,119.824885 652,130.5 C652,144.169355 648.932299,158.489631 644.269394,166.691244 C636.906911,179.709677 624.022567,187 608.438646,187 Z M608,96 C596.644295,96 590,108.391304 590,129.652174 C590,153 596.161074,165 608.120805,165 C619.959732,165 626,153.26087 626,130.043478 C626,107.73913 619.718121,96 608,96 Z" id="2020" fill="#30353A"></path>
        <path d="M51.0285714,107 L76,107 C75.2761905,113.0912 75.0349206,118.5344 75.0349206,126.44 L75.0349206,166.4864 C75.0349206,175.4288 75.2761905,180.7424 76,185.9264 L51.9936508,185.9264 L51.9936508,180.3536 C51.9936508,179.7056 51.9936508,177.7616 52.1142857,176.8544 C44.152381,184.8896 37.2761905,188 27.0222222,188 C18.9396825,188 12.4253968,185.5376 7.84126984,180.7424 C3.01587302,175.5584 0.965079365,169.208 0.965079365,158.9696 L0.965079365,126.44 C0.965079365,118.9232 0.603174603,112.4432 0,107 L25.0920635,107 C24.368254,113.2208 24.1269841,118.664 24.1269841,126.44 L24.1269841,153.008 C24.1269841,158.3216 24.6095238,160.6544 26.0571429,162.728 C27.7460317,165.0608 30.4,166.3568 33.8984127,166.3568 C40.5333333,166.3568 47.2888889,161.3024 51.9936508,153.008 L51.9936508,126.44 C51.9936508,119.1824 51.752381,113.7392 51.0285714,107 Z M89,78 L114,78 L114,98 L89,98 L89,78 Z M89,107 L114,107 C113.282297,112.309836 113.043062,117.490164 113.043062,126.555738 L113.043062,166.444262 C113.043062,173.437705 113.401914,180.431148 114,186 L89,186 C89.7177033,179.654098 89.9569378,174.732787 89.9569378,166.444262 L89.9569378,126.555738 C89.9569378,118.137705 89.7177033,112.827869 89,107 Z M151.944501,186 L127,186 C127.726539,179.984051 127.968718,174.491228 127.968718,166.251994 L127.968718,125.971292 C127.968718,116.031898 127.726539,111.323764 127,106.223285 L150.975782,106.223285 L150.975782,111.716108 C150.975782,112.239234 150.975782,112.239234 150.854692,113.547049 C150.854692,113.547049 150.854692,113.808612 150.854692,114.200957 C150.854692,114.331738 150.854692,114.593301 150.854692,114.854864 C157.030272,107.5311 164.416751,104.130781 173.982846,104.130781 C180.279516,104.130781 185.486377,105.700159 189.482341,108.838915 C191.661958,110.539075 192.872856,112.108453 194.447023,115.37799 C201.954591,107.400319 209.34107,104 219.875883,104 C237.191726,104 246.031282,114.200957 246.031282,133.948963 L246.031282,166.382775 C246.031282,174.491228 246.273461,179.85327 247,186 L221.81332,186 C222.539859,179.85327 222.782038,175.145136 222.782038,166.251994 L222.782038,139.311005 C222.782038,129.502392 220.118063,125.709729 213.215943,125.709729 C207.040363,125.709729 201.470232,130.940989 198.442987,139.703349 L198.442987,166.382775 C198.442987,174.229665 198.685166,179.722488 199.411705,186 L174.225025,186 C174.951564,180.114833 175.193744,174.62201 175.193744,166.251994 L175.193744,139.311005 C175.193744,133.818182 174.709384,131.333333 173.135217,129.110048 C171.803229,127.017544 169.381433,125.84051 166.475277,125.84051 C159.936428,125.84051 154.366297,130.940989 150.975782,139.834131 L150.975782,166.251994 C150.975782,174.491228 151.217962,179.591707 151.944501,186 Z" id="uim" fill="#309FA0"></path>
    </g>
</svg>